<?xml version="1.0" encoding="iso-8859-1"?>
<!-- Generator: Adobe Illustrator 18.0.0, SVG Export Plug-In . SVG Version: 6.00 Build 0)  -->
<!DOCTYPE svg PUBLIC "-//W3C//DTD SVG 1.1//EN" "http://www.w3.org/Graphics/SVG/1.1/DTD/svg11.dtd">
<svg version="1.1" id="Capa_1" xmlns="http://www.w3.org/2000/svg" xmlns:xlink="http://www.w3.org/1999/xlink" x="0px" y="0px"
	 viewBox="0 0 490.001 490.001" style="enable-background:new 0 0 490.001 490.001;" xml:space="preserve">
<g>
	<g>
		<path d="M350.866,119.803c-9.043,0-16.373-7.33-16.373-16.373V51.975c0-9.043,7.33-16.373,16.373-16.373
			c9.041,0,16.371,7.33,16.371,16.373v51.455C367.237,112.473,359.907,119.803,350.866,119.803z"/>
		<path d="M107.174,119.803c-9.042,0-16.372-7.33-16.372-16.373V51.975c0-9.043,7.33-16.373,16.372-16.373
			s16.372,7.33,16.372,16.373v51.455C123.546,112.473,116.216,119.803,107.174,119.803z"/>
	</g>
	<g>
		<g>
			<path d="M109.348,209.971H69.964c-5.768,0-10.46,4.693-10.46,10.461v39.383c0,5.768,4.692,10.461,10.46,10.461h39.384
				c5.768,0,10.46-4.693,10.46-10.461v-39.383C119.808,214.665,115.115,209.971,109.348,209.971z"/>
			<path d="M202.261,209.971h-39.384c-5.768,0-10.46,4.693-10.46,10.461v39.383c0,5.768,4.692,10.461,10.46,10.461h39.384
				c5.768,0,10.459-4.693,10.459-10.461v-39.383C212.72,214.665,208.028,209.971,202.261,209.971z"/>
			<path d="M295.173,209.971h-39.384c-5.768,0-10.459,4.693-10.459,10.461v39.383c0,5.768,4.691,10.461,10.459,10.461h39.384
				c5.768,0,10.46-4.693,10.46-10.461v-39.383C305.633,214.665,300.94,209.971,295.173,209.971z"/>
			<path d="M388.087,209.971h-39.386c-5.767,0-10.458,4.693-10.458,10.461v39.383c0,5.768,4.691,10.461,10.458,10.461h39.386
				c5.767,0,10.459-4.693,10.459-10.461v-39.383C398.546,214.665,393.853,209.971,388.087,209.971z"/>
			<path d="M109.348,303.528H69.964c-5.768,0-10.46,4.693-10.46,10.461v39.383c0,5.768,4.692,10.459,10.46,10.459h39.384
				c5.768,0,10.46-4.691,10.46-10.459v-39.383C119.808,308.221,115.115,303.528,109.348,303.528z"/>
			<path d="M202.261,303.528h-39.384c-5.768,0-10.46,4.693-10.46,10.461v39.383c0,5.768,4.692,10.459,10.46,10.459h39.384
				c5.768,0,10.459-4.691,10.459-10.459v-39.383C212.72,308.221,208.028,303.528,202.261,303.528z"/>
			<path d="M295.173,303.528h-39.384c-5.768,0-10.459,4.693-10.459,10.461v39.383c0,5.768,4.691,10.459,10.459,10.459h39.384
				c5.768,0,10.46-4.691,10.46-10.459v-39.383C305.633,308.221,300.94,303.528,295.173,303.528z"/>
		</g>
		<g>
			<path d="M142.257,91.903h173.525c1.384,0,2.506-1.121,2.506-2.506V66.008c0-1.385-1.122-2.506-2.506-2.506H142.257
				c-1.384,0-2.506,1.121-2.506,2.506v23.389C139.751,90.782,140.873,91.903,142.257,91.903z"/>
			<path d="M458.05,304.211V122.61c0-32.594-26.516-59.107-59.107-59.107h-12.994c-1.384,0-2.506,1.121-2.506,2.506v23.389
				c0,1.385,1.122,2.506,2.506,2.506h12.994c16.932,0,30.707,13.775,30.707,30.707v24.793H28.401V122.61
				c0-16.932,13.774-30.707,30.706-30.707H72.09c1.385,0,2.506-1.121,2.506-2.506V66.008c0-1.385-1.121-2.506-2.506-2.506H59.107
				C26.516,63.502,0,90.016,0,122.61v243.83c0,32.592,26.516,59.108,59.107,59.108h283.281
				c15.433,17.672,38.113,28.852,63.42,28.852c46.497,0,84.192-37.693,84.192-84.191
				C490.001,343.454,477.506,319.631,458.05,304.211z M321.617,370.207c0,9.426,1.572,18.479,4.429,26.94H59.107
				c-16.932,0-30.706-13.775-30.706-30.707V177.473h401.248v111.988c-7.562-2.229-15.558-3.445-23.841-3.445
				C359.31,286.016,321.617,323.71,321.617,370.207z M455.55,341.809c0,0-36.383,52.125-48.597,69.816
				c-2.313,3.35-5.535,5.254-8.564,5.713c-3.12,0.475-6.83-0.451-9.762-2.719l-22.76-18.697c-5.148-4.228-5.893-11.828-1.664-16.975
				c4.228-5.146,11.827-5.893,16.975-1.664l12.909,10.605l41.666-59.859c3.805-5.467,11.321-6.814,16.788-3.01
				C458.008,328.827,459.354,336.342,455.55,341.809z"/>
		</g>
	</g>
</g>
<g>
</g>
<g>
</g>
<g>
</g>
<g>
</g>
<g>
</g>
<g>
</g>
<g>
</g>
<g>
</g>
<g>
</g>
<g>
</g>
<g>
</g>
<g>
</g>
<g>
</g>
<g>
</g>
<g>
</g>
</svg>
